<svg xmlns="http://www.w3.org/2000/svg" width="400" height="400" viewBox="0 0 400 400" fill="none">
  <rect width="400" height="400" fill="none"/>
  <path d="M0 0H40V40H0V0Z" fill="white" fill-opacity="0.05"/>
  <path d="M80 0H120V40H80V0Z" fill="white" fill-opacity="0.05"/>
  <path d="M160 0H200V40H160V0Z" fill="white" fill-opacity="0.05"/>
  <path d="M240 0H280V40H240V0Z" fill="white" fill-opacity="0.05"/>
  <path d="M320 0H360V40H320V0Z" fill="white" fill-opacity="0.05"/>
  <path d="M40 40H80V80H40V40Z" fill="white" fill-opacity="0.05"/>
  <path d="M120 40H160V80H120V40Z" fill="white" fill-opacity="0.05"/>
  <path d="M200 40H240V80H200V40Z" fill="white" fill-opacity="0.05"/>
  <path d="M280 40H320V80H280V40Z" fill="white" fill-opacity="0.05"/>
  <path d="M360 40H400V80H360V40Z" fill="white" fill-opacity="0.05"/>
  <path d="M0 80H40V120H0V80Z" fill="white" fill-opacity="0.05"/>
  <path d="M80 80H120V120H80V80Z" fill="white" fill-opacity="0.05"/>
  <path d="M160 80H200V120H160V80Z" fill="white" fill-opacity="0.05"/>
  <path d="M240 80H280V120H240V80Z" fill="white" fill-opacity="0.05"/>
  <path d="M320 80H360V120H320V80Z" fill="white" fill-opacity="0.05"/>
  <path d="M40 120H80V160H40V120Z" fill="white" fill-opacity="0.05"/>
  <path d="M120 120H160V160H120V120Z" fill="white" fill-opacity="0.05"/>
  <path d="M200 120H240V160H200V120Z" fill="white" fill-opacity="0.05"/>
  <path d="M280 120H320V160H280V120Z" fill="white" fill-opacity="0.05"/>
  <path d="M360 120H400V160H360V120Z" fill="white" fill-opacity="0.05"/>
  <path d="M0 160H40V200H0V160Z" fill="white" fill-opacity="0.05"/>
  <path d="M80 160H120V200H80V160Z" fill="white" fill-opacity="0.05"/>
  <path d="M160 160H200V200H160V160Z" fill="white" fill-opacity="0.05"/>
  <path d="M240 160H280V200H240V160Z" fill="white" fill-opacity="0.05"/>
  <path d="M320 160H360V200H320V160Z" fill="white" fill-opacity="0.05"/>
  <path d="M40 200H80V240H40V200Z" fill="white" fill-opacity="0.05"/>
  <path d="M120 200H160V240H120V200Z" fill="white" fill-opacity="0.05"/>
  <path d="M200 200H240V240H200V200Z" fill="white" fill-opacity="0.05"/>
  <path d="M280 200H320V240H280V200Z" fill="white" fill-opacity="0.05"/>
  <path d="M360 200H400V240H360V200Z" fill="white" fill-opacity="0.05"/>
  <path d="M0 240H40V280H0V240Z" fill="white" fill-opacity="0.05"/>
  <path d="M80 240H120V280H80V240Z" fill="white" fill-opacity="0.05"/>
  <path d="M160 240H200V280H160V240Z" fill="white" fill-opacity="0.05"/>
  <path d="M240 240H280V280H240V240Z" fill="white" fill-opacity="0.05"/>
  <path d="M320 240H360V280H320V240Z" fill="white" fill-opacity="0.05"/>
  <path d="M40 280H80V320H40V280Z" fill="white" fill-opacity="0.05"/>
  <path d="M120 280H160V320H120V280Z" fill="white" fill-opacity="0.05"/>
  <path d="M200 280H240V320H200V280Z" fill="white" fill-opacity="0.05"/>
  <path d="M280 280H320V320H280V280Z" fill="white" fill-opacity="0.05"/>
  <path d="M360 280H400V320H360V280Z" fill="white" fill-opacity="0.05"/>
  <path d="M0 320H40V360H0V320Z" fill="white" fill-opacity="0.05"/>
  <path d="M80 320H120V360H80V320Z" fill="white" fill-opacity="0.05"/>
  <path d="M160 320H200V360H160V320Z" fill="white" fill-opacity="0.05"/>
  <path d="M240 320H280V360H240V320Z" fill="white" fill-opacity="0.05"/>
  <path d="M320 320H360V360H320V320Z" fill="white" fill-opacity="0.05"/>
  <path d="M40 360H80V400H40V360Z" fill="white" fill-opacity="0.05"/>
  <path d="M120 360H160V400H120V360Z" fill="white" fill-opacity="0.05"/>
  <path d="M200 360H240V400H200V360Z" fill="white" fill-opacity="0.05"/>
  <path d="M280 360H320V400H280V360Z" fill="white" fill-opacity="0.05"/>
  <path d="M360 360H400V400H360V360Z" fill="white" fill-opacity="0.05"/>
</svg> 